HIERARCHY
ROOT RootJoint
{
    OFFSET   0.000000   0.000000   0.000000
    CHANNELS 6 Xposition Yposition Zposition Xrotation Yrotation Zrotation
    JOINT lHip
    {
        OFFSET   0.100000  -0.051395   0.000000
        CHANNELS 3 Xrotation Yrotation Zrotation
        JOINT lKnee
        {
            OFFSET   0.000000  -0.410000   0.000000
            CHANNELS 3 Xrotation Yrotation Zrotation
            JOINT lAnkle
            {
                OFFSET   0.000000  -0.390000   0.000000
                CHANNELS 3 Xrotation Yrotation Zrotation
                JOINT lToeJoint
                {
                    OFFSET   0.000000  -0.050000   0.130000
                    CHANNELS 3 Xrotation Yrotation Zrotation
                    End Site
                    {
                        OFFSET   0.010000   0.002000   0.060000
                    }
                }
            }
        }
    }
    JOINT rHip
    {
        OFFSET  -0.100000  -0.051395   0.000000
        CHANNELS 3 Xrotation Yrotation Zrotation
        JOINT rKnee
        {
            OFFSET   0.000000  -0.410000   0.000000
            CHANNELS 3 Xrotation Yrotation Zrotation
            JOINT rAnkle
            {
                OFFSET   0.000000  -0.390000   0.000000
                CHANNELS 3 Xrotation Yrotation Zrotation
                JOINT rToeJoint
                {
                    OFFSET   0.000000  -0.050000   0.130000
                    CHANNELS 3 Xrotation Yrotation Zrotation
                    End Site
                    {
                        OFFSET  -0.010000   0.002000   0.060000
                    }
                }
            }
        }
    }
    JOINT pelvis_lowerback
    {
        OFFSET   0.000000   0.093605   0.000000
        CHANNELS 3 Xrotation Yrotation Zrotation
        JOINT lowerback_torso
        {
            OFFSET   0.000000   0.100000   0.000000
            CHANNELS 3 Xrotation Yrotation Zrotation
            JOINT torso_head
            {
                OFFSET   0.000000   0.282350   0.000000
                CHANNELS 3 Xrotation Yrotation Zrotation
                End Site
                {
                    OFFSET   0.000000   0.192650   0.000000
                }
            }
            JOINT lTorso_Clavicle
            {
                OFFSET   0.001000   0.157500   0.000000
                CHANNELS 3 Xrotation Yrotation Zrotation
                JOINT lShoulder
                {
                    OFFSET   0.117647   0.000000   0.000000
                    CHANNELS 3 Xrotation Yrotation Zrotation
                    JOINT lElbow
                    {
                        OFFSET   0.245000   0.000000   0.000000
                        CHANNELS 3 Xrotation Yrotation Zrotation
                        JOINT lWrist
                        {
                            OFFSET   0.240000   0.000000   0.000000
                            CHANNELS 3 Xrotation Yrotation Zrotation
                            End Site
                            {
                                OFFSET   0.116353  -0.002500   0.000000
                            }
                        }
                    }
                }
            }
            JOINT rTorso_Clavicle
            {
                OFFSET  -0.001000   0.157500   0.000000
                CHANNELS 3 Xrotation Yrotation Zrotation
                JOINT rShoulder
                {
                    OFFSET  -0.117647   0.000000   0.000000
                    CHANNELS 3 Xrotation Yrotation Zrotation
                    JOINT rElbow
                    {
                        OFFSET  -0.245000   0.000000   0.000000
                        CHANNELS 3 Xrotation Yrotation Zrotation
                        JOINT rWrist
                        {
                            OFFSET  -0.240000   0.000000   0.000000
                            CHANNELS 3 Xrotation Yrotation Zrotation
                            End Site
                            {
                                OFFSET  -0.116353  -0.002500   0.000000
                            }
                        }
                    }
                }
            }
        }
    }
}
MOTION
Frames: 17
Frame Time:   0.010000
 -0.277231   0.886111   1.467406 -15.567806 -72.231086 -15.489324 -17.172849   8.743841   0.551257  33.796507  -2.017081   5.234001  -1.020859  -1.779307   1.408461  -0.153544  -0.895568  -0.398860 -17.838358 -11.419103  -1.402566  26.744981   1.092220  -6.497595  -1.306386   2.078114   1.719120  -0.238176  -0.803074   0.084202   1.960602  -0.110025   1.819788   7.351045  -0.897191   1.020145  12.070116   0.462974   0.325577  -0.751015  -1.530567 -16.907283  16.859800 -28.057391 -46.133696   0.632984 -31.255182   6.976613   5.829186   2.644048  -4.045487  -1.274261   1.293351  17.342123  19.044273  25.597661  48.501676  -1.794207  30.675767  -3.614228   7.698251   3.547061  -2.615391
  0.179963   0.834600   0.561401   2.724460  13.074853  -2.461669 -18.104069   9.291130  -1.099965  35.812918  -0.628437   4.386735  -2.306407  -1.978741   0.559870   0.805489  -0.730905  -0.306956 -13.066821 -13.925759  -2.323359  29.933180  -1.355966  -4.296672  -0.497262  -2.619984   3.764333  -0.610864   0.966759   0.472341   1.325550  -0.066734   1.287139   7.815738  -1.044076  -0.483491  13.526834  -1.819805  -1.943387   0.568238  -2.268134 -14.935383  16.333070 -25.764689 -48.159284   1.376650 -31.994832   6.868420   4.045050  -0.156316  -1.814901  -0.726357   1.080853  15.811380  19.176342  26.076573  45.311007  -1.447573  31.207327  -4.182054   8.590523   4.177812  -2.136374
 -0.233611   0.840551   1.258995   2.629504  35.185891  -3.125357 -12.561204  10.684347  -0.925406  37.650685  -1.568809   6.667173  -2.213852  -1.214881  -2.381162  -0.323236  -0.282870  -0.098895 -15.763865  -8.523278  -0.293316  28.125865  -1.107130  -4.872265  -0.030517  -0.033435  -0.530519  -0.516133  -0.700365   0.038148   1.691042  -0.015728   0.837342   8.973378  -1.696442   0.221846  11.091988  -2.016476   2.287406  -0.673389  -1.246272 -15.577540  15.742012 -28.592375 -47.247743   0.031543 -31.598938   5.870776   7.845855   1.314751  -3.641552  -1.015212   1.398159  17.013964  19.787543  25.378237  45.360685  -1.770467  31.251944  -3.837606   8.220468   4.275890  -0.359053
 -0.136946   0.872081   0.980493   7.730863 -37.119016   7.253590 -18.620992   9.986595  -0.064966  33.747143  -2.064166   5.234815  -3.274986   0.586662  -3.277228  -0.705866  -0.549111  -0.217159 -15.845642 -11.314915  -2.119516  27.982946  -1.416637  -6.240066  -2.243755  -1.430887   2.387404   0.293260  -0.239868   0.665129   0.954929  -0.158640   0.760621   6.584365   0.108469   0.158481  12.596304  -0.407330  -2.554223  -0.199209  -2.679375 -16.019787  15.355148 -27.231600 -48.891254   0.565046 -32.098580   6.645178   7.786423   0.515706  -4.584236  -0.619826   0.531066  17.478211  19.640856  26.275777  46.072600  -1.777906  30.684442  -3.398050   8.911423   4.587022  -1.383210
 -0.062708   0.885905   1.187659  -0.555475   4.997717  -2.684622 -18.445953  11.025416  -2.734825  32.373373  -0.690331   5.964612  -4.908948  -0.816750   0.634917  -0.669869  -0.934613   0.053421 -15.940735 -12.170502  -3.169345  24.799052  -0.735045  -6.405762   1.045929  -0.694173   1.690042  -0.846914  -0.133471   0.628183   2.370524  -0.170338  -0.361244   6.711117  -0.424664   0.106453  10.176336   2.008440  -3.775627  -0.941707  -1.700602 -15.701894  18.074629 -28.665737 -47.814962   0.973367 -32.380937   5.760653   6.467828   2.757434  -5.887843  -0.375248   0.004079  17.412358  19.111424  26.311699  47.636495  -1.328635  30.027767  -4.947776   6.878845   5.123756  -3.351268
  0.000236   0.892266   1.105152   0.083479  30.496956  -1.273594 -17.581212   8.438884   0.322759  35.044617  -2.614803   4.469001  -1.921000  -3.452666  -0.406505   0.709042  -1.446719   0.002271 -16.971549 -10.881950  -2.951365  28.589854  -0.673532  -6.173818  -0.865296  -1.300869   2.584463  -0.312552   0.306822  -0.076516   2.044885  -0.725457   0.189367   7.472862   1.298558  -0.502916  11.869542   0.741783  -3.684159   0.057461  -2.757469 -14.066677  14.473389 -28.741200 -46.924463   0.149794 -32.771722   5.316010   5.450927   2.269893  -3.216505  -0.927805   0.297323  16.973752  18.558025  26.147997  45.685520  -0.681238  29.245480  -3.987642   6.872917   3.801864  -2.424787
 -0.040817   0.861429   0.685365   2.222712 -50.706195   0.104567 -16.529480   9.230505   6.752532  33.867805  -0.687633   5.374631  -3.249337  -0.529770   0.071223  -0.416125  -1.045561  -0.512288 -13.825094 -10.645869  -0.465213  23.495088  -2.086399  -5.786388  -0.460150   0.375763   1.386339  -0.186861  -0.129058   0.884653   1.638824  -0.003098   1.087535   6.895647  -1.717974   0.367839  13.263061   2.062684  -0.874825  -0.094391  -1.175504 -15.586011  14.037185 -27.990314 -46.520432   0.855226 -29.030104   5.102264   6.157184   1.480591  -3.120006  -0.903344   0.490301  16.857141  21.024513  26.222692  45.454434  -1.373734  29.402052  -3.716435   8.348163   3.399433  -2.733761
 -0.219689   0.828637   1.168562  32.216226  63.737672 -42.337216 -14.879222   9.505652  -0.345883  35.997999  -2.845984   5.264414  -2.066758   0.758753  -1.531327  -0.651358  -0.691301  -0.279264 -12.701281 -12.721137  -3.523644  24.089977  -1.747695  -5.495668  -1.685051  -0.952062   3.700491  -0.448639  -0.388603   0.354490   1.277150   0.487613   0.453384   6.371277  -2.390448   2.166565  12.916103   3.432223  -1.526387   0.288833  -0.182692 -15.797760  19.551847 -28.130119 -46.169576   0.689710 -32.154680   5.822740   7.395257   2.374457  -1.973289  -0.556569   0.537464  15.912993  20.643684  27.657555  44.853482  -2.505103  29.509660  -3.266296   9.496083   4.347194  -1.496854
 -0.224548   0.875420   1.158287   4.267468  45.817568  -4.856880 -19.619078   8.953859   0.941686  40.078034  -0.460103   6.012288  -4.463569   1.274595  -0.429203  -0.147179  -0.765563  -0.160834 -17.661855 -13.008953  -1.112348  25.744239  -2.514326  -6.629927  -2.165577   0.791788   1.349043  -0.321216  -0.288812   0.499297   1.301898  -0.073452   0.612524   8.012268   0.352494   0.033469  11.192171  -3.203988  -0.561179  -0.459986  -1.385914 -14.225604  16.052277 -25.521630 -47.901931   0.376211 -33.337494   6.163115   5.960058   0.600940  -2.627807  -1.108298   1.153652  16.534420  21.299997  25.903503  46.698141  -1.409151  30.758243  -4.110254   8.984426   3.923208  -0.845811
  0.196581   0.864145   1.204868   2.479657   5.847480  -3.374392 -17.498735   8.755441   0.629478  32.882902  -2.061016   6.497501  -2.402295  -0.446141  -1.735067   0.138648  -0.453247  -0.247348 -11.990320 -11.456038  -1.920928  27.069377  -3.104571  -5.926958   1.750397  -0.882628   1.433489   0.361251   0.760403   0.518535   0.869675   0.233599   0.693713   6.726545  -3.470609   1.157182  13.852525   1.968468  -2.955636   0.156021  -2.193801 -15.945811  14.730479 -30.002857 -47.961391   1.590857 -32.957428   6.920813   5.957281   0.288387  -2.749243  -0.045027   0.668761  16.839530  21.578586  27.501761  46.643253  -1.192679  29.005749  -3.114342   7.635155   4.198187  -3.006589
 -0.111803   0.833335   0.881301   4.935800 -74.065241   5.639960 -16.536707   8.568765   1.368669  32.706560  -1.384641   4.946900   1.709923   0.623932  -1.523797   0.200605  -0.476120  -0.069402 -12.513116 -12.287868   1.374869  25.543376  -2.409412  -6.203280  -1.994735   0.098272   1.563577   0.307260   0.381712   0.751575   1.632573  -0.201686   0.518442   6.076998  -2.663738   0.851254  14.840471   2.686335  -3.349411  -0.364489  -1.958445 -15.682957  15.763517 -27.538703 -48.260500   0.170514 -31.394044   6.422155   5.924701   0.281370  -3.401616  -0.514647   0.151838  16.996755  20.182856  26.276090  45.967482  -1.578602  30.266450  -3.880509   9.226107   3.745973  -2.009563
 -0.060510   0.871484   1.057650  -0.513295 -12.954344  -3.580385 -15.479614  10.836927   0.618368  34.923581  -0.822692   7.137186  -1.749988  -0.772532  -0.386722  -0.502289  -0.605513   0.074076 -14.156972 -11.017916  -0.815918  27.209126  -2.331983  -6.232052  -0.446003  -0.832481   2.455139  -0.886779   0.238680   0.771394   1.141353  -0.429086   0.799645   7.050072  -2.268619   2.274454  14.491866   2.629106  -3.313839  -0.203158  -1.282599 -15.724944  17.293601 -26.084107 -46.150861   0.776647 -33.991967   7.089873   4.853626   1.668688  -3.509336  -0.170018  -0.697132  17.043032  20.221025  25.340280  45.154392  -1.540515  30.117702  -4.254396   7.929400   4.446273  -1.488842
 -0.284173   0.874990   1.465650 153.526431 -45.224477 -179.177456 -16.995716   7.126232  -2.071877  32.699966  -1.431504   5.925941  -5.779832  -2.406021  -0.643586   0.247587  -0.540345   0.160247 -16.408586  -9.364218  -2.191737  27.645035  -0.513873  -4.893627  -0.398406   0.696880   3.031059  -0.118475   0.223769   0.395133   1.147968   0.811070   0.883752   7.130714  -2.125137   0.999057  12.615072   3.932465  -3.237785  -0.116650  -2.545651 -15.598433  17.817526 -28.382379 -47.226760   0.399879 -32.428839   5.993677   6.062351   1.090508  -4.989318  -0.818947   0.608531  16.663846  19.054880  26.394620  46.548517  -2.720822  29.299965  -3.184817   8.956346   5.520059  -2.921797
 -0.182781   0.868831   0.952580   3.767425 -35.135421  -0.572606 -16.694473   7.692004   1.439135  31.430466  -1.577974   4.942093  -3.746073  -0.159803   1.697467   0.190942  -0.712254  -0.807688 -16.882668 -11.633832  -2.114718  23.489180  -2.123222  -6.612112   0.144981  -0.768187   1.510655  -0.257506   0.179285   0.622575   1.171763   0.475371   0.951639   6.228117  -1.300522   0.806135  13.252597   4.715260  -3.462448  -0.193680  -0.932456 -15.667663  15.953271 -27.772860 -47.694431   0.090993 -30.002879   5.838992   5.602358   1.795775  -2.755643  -0.512194   0.438033  17.467329  18.535504  24.836736  45.920386  -1.658122  30.521380  -3.743604   8.839696   4.465992  -1.848294
 -0.143909   0.866214   1.022017   1.087138 -12.966927  -1.709535 -17.142159   8.320199  -1.439977  32.172385  -1.112436   4.129449  -1.342823  -0.775496  -0.722518   0.681034  -0.488687  -0.132067 -16.037013 -11.061834  -2.811864  24.837916  -0.901163  -4.830719  -1.815935  -1.382896   3.041268   0.249914  -0.085248   0.341298   1.209343   0.504664   1.699993   6.010934  -0.584230   0.837637  12.776801   1.986242  -3.364922  -0.493308  -0.783012 -15.696549  16.918880 -28.582204 -45.657349   0.620220 -31.161223   4.984336   4.999657   1.114954  -4.526065  -0.641109   0.801906  16.639195  17.325773  25.071060  46.165262  -1.421662  28.479880  -3.323661   8.703534   4.382711  -2.841025
 -0.174627   0.852091   1.153777   7.107499  66.526098  -8.059161 -13.343035  11.605601  -0.057232  37.140423  -0.782877   5.342525  -3.623518  -3.249059  -2.218450   0.443211  -0.292144  -0.404993 -14.173945 -11.782131  -1.962730  30.039681  -2.315191  -7.017743  -1.397485  -1.330202   0.178429  -1.028922   0.337681   0.187842   1.119832  -0.669861   0.526587   8.394668  -2.287906   0.155883   9.598301  -0.835893  -0.830734   0.216165  -3.217348 -15.752376  17.346447 -28.455443 -47.103725   1.171637 -33.750975   7.213213   5.239506   0.027300  -3.925964  -1.096057   0.264230  16.188770  20.546584  25.665850  47.136528  -2.056983  32.202090  -3.340467   9.058507   4.100473  -0.584582
 -0.078773   0.852797   0.863679   2.591752   5.176866  -0.525531 -17.084457   7.068558   0.422330  35.326222  -0.778868   6.331422  -2.444913  -0.486065  -2.431093   0.396905  -0.311681  -0.485004 -16.842743 -12.414252  -1.234988  28.631753  -2.591563  -3.914694  -1.063996  -0.619242   0.826289   0.031694   0.928577   0.550527   0.971165   0.133321   1.547821   7.601234   0.041727  -0.365567  13.956350   0.674266  -3.000796  -0.926211  -2.594260 -15.741684  15.040579 -29.126228 -49.554361   0.115792 -33.728154   5.654384   5.354263   2.018801  -1.664074  -1.513447   1.384736  17.251343  21.099819  26.513230  44.009438  -1.703325  29.707307  -4.090092   7.227692   4.402723  -1.778663
